<svg preserveAspectRatio="none" width="100%" height="100%" overflow="visible" style="display: block;" viewBox="0 0 16.0497 21.5045" fill="none" xmlns="http://www.w3.org/2000/svg">
<g id="Group">
<path id="Vector" d="M6.01986 21.5045C5.81986 21.5045 5.65986 21.4645 5.53986 21.4145C5.13986 21.2645 4.45986 20.7745 4.45986 19.2245V12.7745H2.11986C0.779863 12.7745 0.299863 12.1445 0.129863 11.7745C-0.0401371 11.3945 -0.190137 10.6245 0.689863 9.6145L8.25988 1.01452C9.27988 -0.145477 10.1099 -0.0654771 10.5099 0.0845229C10.9099 0.234523 11.5899 0.724523 11.5899 2.27452V8.72452H13.9299C15.2699 8.72452 15.7499 9.3545 15.9199 9.7245C16.0899 10.1045 16.2399 10.8745 15.3599 11.8845L7.78988 20.4845C7.07988 21.2945 6.45988 21.5045 6.01986 21.5045ZM9.95988 1.49452C9.92988 1.53452 9.71988 1.63452 9.38988 2.01452L1.81986 10.6145C1.53986 10.9345 1.49986 11.1345 1.49986 11.1745C1.51986 11.1845 1.69986 11.2845 2.11986 11.2845H5.20986C5.61986 11.2845 5.95986 11.6245 5.95986 12.0345V19.2345C5.95986 19.7345 6.04988 19.9545 6.08988 20.0145C6.11988 19.9745 6.32988 19.8745 6.65988 19.4945L14.2299 10.8945C14.5099 10.5745 14.5499 10.3745 14.5499 10.3345C14.5299 10.3245 14.3499 10.2245 13.9299 10.2245H10.8399C10.4299 10.2245 10.0899 9.8845 10.0899 9.4745V2.27452C10.0999 1.77452 9.99988 1.56452 9.95988 1.49452Z" fill="none"/>
</g>
</svg>
