<svg preserveAspectRatio="none" width="100%" height="100%" overflow="visible" style="display: block;" viewBox="0 0 22.6901 18.238" fill="none" xmlns="http://www.w3.org/2000/svg">
<path id="Icon" fill-rule="evenodd" clip-rule="evenodd" d="M0.232848 4.71256C-0.105659 7.85772 -0.0905694 11.4851 0.380467 14.6175C0.641102 16.3507 2.05566 17.6795 3.80179 17.8313L5.62665 17.9899C9.43175 18.3207 13.2584 18.3207 17.0635 17.9899L18.8883 17.8313C20.6345 17.6795 22.049 16.3507 22.3097 14.6175C22.7807 11.4851 22.7958 7.85793 22.4573 4.71275C22.4135 4.34812 22.3643 3.98398 22.3097 3.62046C22.049 1.88723 20.6345 0.558497 18.8883 0.406709L17.0635 0.248077C13.2584 -0.0826926 9.43175 -0.0826924 5.62665 0.248078L3.80179 0.40671C2.05566 0.558497 0.641102 1.88723 0.380467 3.62046C0.325811 3.98392 0.276605 4.34799 0.232848 4.71256ZM5.78362 2.05377C9.48427 1.73208 13.2059 1.73208 16.9065 2.05377L18.7314 2.2124C19.6429 2.29163 20.3813 2.98524 20.5173 3.88998C20.5314 3.98394 20.5452 4.07794 20.5585 4.17198L13.839 7.90506C12.288 8.76673 10.402 8.76673 8.85104 7.90506L2.13157 4.17202C2.14494 4.07797 2.15868 3.98395 2.17282 3.88998C2.30887 2.98524 3.04727 2.29163 3.95875 2.2124L5.78362 2.05377ZM20.7803 6.12219C21.0147 8.86239 20.927 11.6233 20.5173 14.348C20.3813 15.2527 19.6429 15.9463 18.7314 16.0256L16.9065 16.1842C13.2059 16.5059 9.48427 16.5059 5.78362 16.1842L3.95875 16.0256C3.04727 15.9463 2.30887 15.2527 2.17282 14.348C1.76308 11.6233 1.6754 8.86242 1.90978 6.12223L7.97081 9.48947C10.0692 10.6553 12.6208 10.6553 14.7192 9.48947L20.7803 6.12219Z" fill="var(--fill-0, white)"/>
</svg>
