<svg preserveAspectRatio="none" width="100%" height="100%" overflow="visible" style="display: block;" viewBox="0 0 17 14.7279" fill="none" xmlns="http://www.w3.org/2000/svg">
<g id="Frame 126">
<path id="Arrow 1" d="M1.5 6.36396C0.947715 6.36396 0.5 6.81168 0.5 7.36396C0.5 7.91624 0.947715 8.36396 1.5 8.36396L1.5 7.36396L1.5 6.36396ZM16.2071 8.07107C16.5976 7.68054 16.5976 7.04738 16.2071 6.65685L9.84315 0.292893C9.45262 -0.0976312 8.81946 -0.0976313 8.42893 0.292893C8.03841 0.683417 8.03841 1.31658 8.42893 1.70711L14.0858 7.36396L8.42893 13.0208C8.03841 13.4113 8.03841 14.0445 8.42893 14.435C8.81946 14.8256 9.45262 14.8256 9.84314 14.435L16.2071 8.07107ZM1.5 7.36396L1.5 8.36396L15.5 8.36396L15.5 7.36396L15.5 6.36396L1.5 6.36396L1.5 7.36396Z" fill="var(--stroke-0, white)"/>
</g>
</svg>
